<svg width="56" height="30" viewBox="0 0 56 30" fill="none" xmlns="http://www.w3.org/2000/svg">
<path d="M47.7031 24.8999H56.0031L28.3365 0L0.669922 24.8999H8.96989L28.3365 7.44231L47.7031 24.8999ZM14.5032 5.00765V0H6.20324V12.45L14.5032 5.00765Z" fill="#7C6A46"/>
<mask id="path-2-outside-1_403_258" maskUnits="userSpaceOnUse" x="19" y="14" width="19" height="13" fill="black">
<rect fill="white" x="19" y="14" width="19" height="13"/>
<path d="M25.072 14.672H27.12L28.416 18.432L29.728 14.672H31.76L29.808 19.84L31.248 23.456L34.464 14.64H36.864L32.32 26H30.416L28.416 21.232L26.432 26H24.528L20 14.64H22.368L25.6 23.456L27.008 19.84L25.072 14.672Z"/>
</mask>
<path d="M25.072 14.672H27.12L28.416 18.432L29.728 14.672H31.76L29.808 19.84L31.248 23.456L34.464 14.64H36.864L32.32 26H30.416L28.416 21.232L26.432 26H24.528L20 14.64H22.368L25.6 23.456L27.008 19.84L25.072 14.672Z" fill="#7C6A46"/>
<path d="M25.072 14.672V14.172H24.3508L24.6038 14.8474L25.072 14.672ZM27.12 14.672L27.5927 14.5091L27.4765 14.172H27.12V14.672ZM28.416 18.432L27.9433 18.5949L28.4131 19.958L28.8881 18.5967L28.416 18.432ZM29.728 14.672V14.172H29.3729L29.2559 14.5073L29.728 14.672ZM31.76 14.672L32.2277 14.8487L32.4833 14.172H31.76V14.672ZM29.808 19.84L29.3403 19.6633L29.2717 19.8448L29.3435 20.025L29.808 19.84ZM31.248 23.456L30.7835 23.641L31.2685 24.8589L31.7177 23.6274L31.248 23.456ZM34.464 14.64V14.14H34.1142L33.9943 14.4686L34.464 14.64ZM36.864 14.64L37.3282 14.8257L37.6025 14.14H36.864V14.64ZM32.32 26V26.5H32.6585L32.7842 26.1857L32.32 26ZM30.416 26L29.9549 26.1934L30.0835 26.5H30.416V26ZM28.416 21.232L28.8771 21.0386L28.4141 19.935L27.9544 21.0399L28.416 21.232ZM26.432 26V26.5H26.7655L26.8936 26.1921L26.432 26ZM24.528 26L24.0635 26.1851L24.189 26.5H24.528V26ZM20 14.64V14.14H19.2624L19.5355 14.8251L20 14.64ZM22.368 14.64L22.8374 14.4679L22.7172 14.14H22.368V14.64ZM25.6 23.456L25.1306 23.6281L25.5859 24.8702L26.0659 23.6374L25.6 23.456ZM27.008 19.84L27.4739 20.0214L27.5432 19.8434L27.4762 19.6646L27.008 19.84ZM25.072 15.172H27.12V14.172H25.072V15.172ZM26.6473 14.8349L27.9433 18.5949L28.8887 18.2691L27.5927 14.5091L26.6473 14.8349ZM28.8881 18.5967L30.2001 14.8367L29.2559 14.5073L27.9439 18.2673L28.8881 18.5967ZM29.728 15.172H31.76V14.172H29.728V15.172ZM31.2923 14.4953L29.3403 19.6633L30.2757 20.0167L32.2277 14.8487L31.2923 14.4953ZM29.3435 20.025L30.7835 23.641L31.7125 23.271L30.2725 19.655L29.3435 20.025ZM31.7177 23.6274L34.9337 14.8113L33.9943 14.4686L30.7783 23.2846L31.7177 23.6274ZM34.464 15.14H36.864V14.14H34.464V15.14ZM36.3998 14.4543L31.8558 25.8143L32.7842 26.1857L37.3282 14.8257L36.3998 14.4543ZM32.32 25.5H30.416V26.5H32.32V25.5ZM30.8771 25.8066L28.8771 21.0386L27.9549 21.4254L29.9549 26.1934L30.8771 25.8066ZM27.9544 21.0399L25.9704 25.8079L26.8936 26.1921L28.8776 21.4241L27.9544 21.0399ZM26.432 25.5H24.528V26.5H26.432V25.5ZM24.9925 25.8149L20.4645 14.4549L19.5355 14.8251L24.0635 26.1851L24.9925 25.8149ZM20 15.14H22.368V14.14H20V15.14ZM21.8986 14.8121L25.1306 23.6281L26.0694 23.2839L22.8374 14.4679L21.8986 14.8121ZM26.0659 23.6374L27.4739 20.0214L26.5421 19.6586L25.1341 23.2746L26.0659 23.6374ZM27.4762 19.6646L25.5402 14.4966L24.6038 14.8474L26.5398 20.0154L27.4762 19.6646Z" fill="#7C6A46" mask="url(#path-2-outside-1_403_258)"/>
</svg>
